<svg width="506" height="535" viewBox="0 0 506 535" fill="none" xmlns="http://www.w3.org/2000/svg">
<path d="M262.8 504.003C261.425 504.722 260.761 505.413 259.071 505.713C254.499 506.526 249.799 506.291 245.202 507.023C243.609 507.276 238.82 507.645 240.428 507.804C242.71 508.029 245.11 507.951 247.41 508.1C250.293 508.286 253.249 508.317 256.103 508.754C257.962 509.039 258.721 509.2 256.293 510.063C249.534 512.467 242.33 511.7 235.274 512.006C233.326 512.091 231.398 512.62 229.456 512.83C226.633 513.135 223.818 512.962 221.001 513.21C215.828 513.664 210.719 513.886 205.516 513.886C201.249 513.886 196.982 513.886 192.715 513.886C190.178 513.886 188.196 514.316 185.661 513.907C184.496 513.718 186.279 510.716 186.279 509.62C186.279 505.366 185.514 501.612 184.569 497.457C182.269 487.354 183.286 476.448 183.286 466.204C183.286 459.197 184.177 452.381 185.329 445.468C185.76 442.881 185.851 440.125 185.851 437.507C185.851 436.554 185.475 435.628 186.872 435.628C192.527 435.628 198.316 436.604 203.972 436.895C213.899 437.405 223.513 437.61 233.398 436.726C242.782 435.887 252.252 436.335 261.518 434.656C267.717 433.534 273.923 432.589 280.09 431.32C287.291 429.838 294.901 430.07 302.225 429.124C305.675 428.678 309.157 428.73 312.556 427.963C315.371 427.327 318.153 426.554 320.963 425.893C321.792 425.698 324.561 424.424 325.357 424.626C325.775 424.732 323.205 429.09 323.053 429.377C318.702 437.598 314.6 445.315 314.527 454.59C314.475 461.188 316.415 466.942 318.707 473.131C320.574 478.173 320.084 483.785 320.084 489.01C320.084 495.155 320.939 501.255 320.939 507.403C320.939 508.55 320.939 509.697 320.939 510.845C320.939 511.931 320.377 507.06 320.322 506.621C318.531 492.374 318.128 478.11 317.187 463.797C316.884 459.186 316.241 453.332 318.184 448.889C318.593 447.954 318.814 446.905 319.419 446.059C320.384 444.711 319.657 447.057 319.657 448.065C319.657 460.064 316.002 471.874 318.042 483.942C318.939 489.247 321.256 494.287 322.127 499.611C322.555 502.228 323.168 505.7 322.626 508.353C322.379 509.558 321.269 511.252 320.084 509.789C318.933 508.367 317.715 507.71 315.786 507.424C310.419 506.629 304.487 505.947 299.137 507.255C294.373 508.42 290.151 510.35 285.125 510.76C279.547 511.216 272.923 511.398 267.36 510.76C266.4 510.65 264.715 510.465 266.79 510.465C274.32 510.465 281.637 509.309 289.044 508.205C290.17 508.037 310.213 505.996 309.753 503.75C309.355 501.802 305.262 499.109 303.982 497.584C298.347 490.865 294.506 483.503 292.392 475.327C291.347 471.285 290.669 467.197 290.16 463.079C290.027 462.005 290.298 458.962 289.637 459.87C288.728 461.119 288.482 463.553 288.07 464.895C286.524 469.936 284.761 474.908 282.987 479.888C280.974 485.542 278.237 491.89 278.237 497.921C278.237 499.042 278.955 498.247 279.306 497.731C280.881 495.418 281.527 492.492 282.275 489.918C285.878 477.515 288.401 464.919 289.899 452.183C290.359 448.266 290.691 444.334 291.205 440.421C291.341 439.38 291.49 438.407 291.418 440.231C291.153 446.971 288.829 453.522 287.072 460.038C284.963 467.865 282.571 475.62 280.232 483.393C279.78 484.896 279.124 486.361 278.712 487.87C278.412 488.97 279.701 485.78 280.09 484.703C283.1 476.368 286.829 465.587 283.985 456.829C282.157 451.2 275.527 455.814 273.321 458.497C269.491 463.155 267.772 468.925 266.339 474.461C264.684 480.852 263.79 487.297 263.513 493.846C263.387 496.825 263.123 500.084 263.869 503.032C263.922 503.241 264.306 504.494 264.534 503.581C266.643 495.141 266.559 486.09 266.838 477.502C267.129 468.51 268.018 458.523 265.033 449.776C264.395 447.907 263.853 447.824 263.038 449.649C261.307 453.521 259.508 457.314 257.528 461.094C253.753 468.299 249.831 475.471 246.84 482.971C246.06 484.927 245.203 486.919 244.893 488.989C244.743 489.987 244.845 486.976 244.845 485.97C244.845 476.463 244.189 466.967 241.33 457.758C240.469 454.982 239.411 452.164 238.1 449.522C237.402 448.115 237.584 450.369 237.578 450.621C237.227 464.543 234.412 478.414 233.73 492.347C233.153 504.159 232.657 468.553 229.432 457.082C229.246 456.42 227.451 449.388 225.347 451.909C223.756 453.815 222.975 456.472 222.117 458.666C219.97 464.155 218.346 469.756 217.177 475.475C215.544 483.458 214.712 491.849 215.776 499.949C215.907 500.945 216.391 502.885 215.918 500.329C215.222 496.566 214.493 492.798 213.686 489.053C211.483 478.831 207.728 469.049 205.088 458.94C204.752 457.653 204.41 456.367 204.233 455.055C204.107 454.12 203.863 456.91 203.711 457.842C202.66 464.274 201.799 470.61 201.692 477.122C201.608 482.234 201.053 487.718 202.713 492.685C203.114 493.882 203.332 494.819 204.803 495.071C210.183 495.991 216.727 494.941 221.856 493.593C229.494 491.584 236.847 488.388 241.283 482.295C242.611 480.471 243.489 478.518 243.895 476.383C244.075 475.44 243.55 478.269 243.373 479.212C242.081 486.104 240.527 492.981 239.478 499.906C239.272 501.265 238.887 504.863 238.86 501.089C238.805 493.307 237.87 485.414 234.633 478.114C230.516 468.83 222.556 461.769 213.923 455.667C212.93 454.965 203.709 447.948 202.333 449.987C201.22 451.637 200.162 453.749 199.317 455.541C198.484 457.308 197.778 459.262 198.533 461.179C199.327 463.191 201.762 463.214 203.378 462.023C206.698 459.578 207.582 454.805 207.653 451.212C207.696 449.083 207.653 448.296 207.653 450.789" stroke="#99D056" stroke-width="36" stroke-linecap="round"/>
<path d="M286.963 111.756C294.338 111.756 296.66 106.067 297.999 100.333C299.625 93.3656 301.65 84.827 298.74 77.926C296.456 72.5111 292.969 76.7655 291.328 80.0495C284.111 94.487 275.139 117.838 280.374 133.797C282.044 138.887 285.803 134.085 287.045 131.601C293.016 119.655 294.81 106.27 297.34 93.5231C298.254 88.9191 308.201 64.6074 297.01 63.2808C287.779 62.1864 281.506 75.2097 278.398 80.7086C270.858 94.0463 264.754 108.929 262.42 123.765C262.277 124.678 259.979 137.256 263.573 136.8C272.335 135.687 277.355 113.82 278.892 108.534C284.041 90.8261 286.246 70.2137 281.857 52.1504C281.218 49.5239 275.929 36.9603 270.327 42.0452C262.142 49.4738 258.746 63.6117 256.079 73.1663C251.345 90.1242 248.164 108.129 247.102 125.596C245.672 149.112 257.549 130.051 261.679 118.493C264.189 111.469 278.967 53.4838 260.197 55.1527C251.209 55.9518 245.34 68.2718 241.584 74.045C231.568 89.4414 221.509 105.858 216.218 123.106C215.902 124.135 210.563 141.963 214.653 141.559C224.473 140.589 231.294 116.834 233.348 110.731C234.936 106.012 247.471 51.1253 238.784 51.1253C231.531 51.1253 223.872 76.1302 222.477 81.3676C220.519 88.7171 220.253 95.6986 220.253 103.189C220.253 109.054 220.75 116.1 214.324 118.64C213.084 119.13 206.762 121.916 205.759 120.69C204.4 119.029 210.08 107.449 211.359 105.459C213.633 101.921 216.714 91.3132 212.1 88.0312C209.584 86.2418 207.426 76.9262 209.135 74.1914C213.047 67.9302 211.963 78.465 212.841 82.7589C214.177 89.2893 213.256 99.0845 216.136 105.166C217.403 107.843 213.836 109.631 211.688 107.509C209.476 105.324 211.655 98.1218 212.512 95.6467C216.359 84.5293 209.876 72.7288 209.876 61.6698C209.876 51.5337 216.95 33.691 229.23 32.5991C236.02 31.9954 248.003 29.483 254.349 27.1071C263.317 23.75 276.939 26.082 286.633 26.082C291.238 26.082 301.663 27.4854 305.493 29.3771C309.781 31.4951 318.408 30.0362 323.282 30.0362C339.614 30.0362 333.214 49.226 338.107 57.0566C341.739 62.8698 340.33 70.7321 340.33 77.1937C340.33 84.2451 343.295 91.3713 343.295 98.8686C343.295 118.275 344.778 137.326 344.778 156.571C344.778 165.915 343.181 173.905 341.73 182.932C341.094 186.893 338.848 190.738 338.848 194.795C338.848 198.064 339.926 203.086 338.107 205.998C335.596 210.016 337.365 218.526 337.365 223.06C337.365 232.635 332.931 226.319 325.424 228.405C321.396 229.524 315.881 227.965 312.494 230.675C310.67 232.134 307.177 233.085 304.752 234.044C297.14 237.052 284.858 234.357 276.586 235.948C270.916 237.038 265.231 238.279 259.62 239.609C255.281 240.638 250.756 243.563 246.196 243.563C236.886 243.563 227.993 242.245 218.689 242.245C215.407 242.245 206.932 242.76 204.276 240.634C202.382 239.118 203.097 234.943 202.135 233.019C199.681 228.109 201.257 222.374 202.135 217.202C203.26 210.573 201.488 203.724 203.123 197.138C205.495 187.586 211.873 179.022 214.324 169.458C215.281 165.721 216.282 154.226 215.806 158.035C215.141 163.359 214.517 168.659 213.994 173.998C213.248 181.628 211.51 189.172 211.359 196.845C211.277 200.977 211.286 202.311 211.359 196.845C211.554 182.081 215.806 167.674 215.806 152.909C215.806 144.064 214.829 170.58 214.406 179.417C213.997 187.973 214.819 200.526 218.03 184.03C219.72 175.346 221.736 166.137 221.736 157.303C221.736 156.459 221.993 153.154 220.83 155.912C217.19 164.542 215.085 173.865 212.182 182.712C211.596 184.5 207.686 204.147 205.429 204.021C202.519 203.859 201.021 193.079 199.829 190.84C196.373 184.353 189.837 177.571 194.723 169.751C199.386 162.288 203.947 159.605 203.947 150.639C203.947 148.471 202.464 142.1 202.464 144.269C202.464 155.814 202.464 167.359 202.464 178.905C202.464 187.867 203.815 197.74 202.382 206.657C202.104 208.387 196.699 215.94 196.699 212.222C196.699 201.309 210.622 192.426 215.641 183.005C217.404 179.697 217.905 175.117 220.171 172.095C222.765 168.636 221.649 180.305 222.477 184.397C224.478 194.282 226.111 206.802 232.113 215.591C234.336 218.846 234.409 216.462 235.737 213.394C240.705 201.909 243.733 189.968 247.267 178.099C250.19 168.281 253.289 158.425 256.985 148.809C258.251 145.514 260.412 141.824 261.761 147.491C264.962 160.93 264.726 175.421 264.726 189.083C264.726 197.13 266.241 208.484 261.761 216.03C256.901 224.219 241.053 194.755 240.513 193.257C234.513 176.612 238.043 160.618 238.043 143.756C238.043 125.727 232.033 179.442 227.748 197.065C226.916 200.487 219.989 219.838 227.666 219.838C232.422 219.838 231.289 224.54 235.078 226.135C237.249 227.05 242.56 224.266 244.631 223.792C250.606 222.426 256.806 220.919 262.914 220.131C269.101 219.332 275.969 218.52 282.186 218.52C288.097 218.52 295.469 219.796 300.634 216.616C310.265 210.688 318.605 203.074 320.729 192.451C324.379 174.199 313.85 155.654 317.764 137.093C321.048 121.524 320.822 106.824 317.353 91.3996C316.076 85.726 316.375 79.9541 315.211 74.2647C314.463 70.6038 312.128 67.2561 310.682 63.7201C309.023 59.6635 305.768 56.4251 304.834 51.8575C304.431 49.8866 306.055 44.4529 304.093 43.2901C300.152 40.954 313.744 46.667 315.788 50.4662C322.82 63.5392 313.54 79.2243 306.893 90.7405C295.978 109.654 286.731 129.242 282.515 150.273C280.673 159.465 279.434 171.464 283.998 180.296C286.681 185.488 289.928 189.224 289.928 195.088C289.928 197.044 289.873 198.358 288.775 200.067C286.241 204.009 288.54 190.982 288.775 186.447C289.729 167.997 291.41 112.619 291.41 131.088C291.41 145.051 294.308 158.377 295.528 172.241C296.685 185.384 294.741 195.444 284.327 205.046C279.209 209.766 278.068 210.462 278.068 202.703" stroke="#FFEF40" stroke-width="36" stroke-linecap="round"/>
<path d="M191.338 237.284C187.937 233.894 188.744 228.626 187.062 224.58C185.863 221.697 187.761 219.414 188.895 216.643" stroke="#FFEF40" stroke-width="40" stroke-linecap="round"/>
<path d="M236.788 381.692C236.603 382.31 235.802 384.28 235.005 384.39C234.581 384.447 234.733 377.018 234.75 376.606C234.968 371.318 236.357 366.182 237.159 360.956C237.924 355.965 238.114 350.936 238.015 345.903C237.882 339.087 235.735 332.628 235.12 325.888C235.056 325.182 232.441 331.097 232.341 331.366C228.884 340.68 225.116 349.898 221.642 359.206C219.723 364.346 217.793 369.604 216.662 374.938C216.251 376.877 216.253 377.687 216.616 375.103C218.454 362.027 222.7 349.125 223.355 335.937C223.656 329.893 223.724 323.578 222.614 317.59C222.304 315.914 221.638 314.262 221.387 312.586C221.23 311.538 220.505 308.927 218.862 310.506C214.747 314.462 212.301 320.318 210.015 325.188C206.912 331.802 203.99 338.571 201.863 345.492C201.719 345.96 201.105 349.888 200.335 350.104C198.93 350.498 198.264 345.599 198.204 345.121C196.989 335.401 197.47 326.029 199.223 316.416C199.788 313.317 200.816 309.827 199.501 306.82C198.116 303.653 199.319 300.064 198.528 296.812C197.448 292.368 197.91 288.222 198.019 283.757C198.097 280.576 198.019 277.385 198.019 274.203C198.019 272.429 198.986 269.274 196.351 269.014C193.774 268.759 195.429 267.023 194.058 266.048C193.561 265.695 192.815 263.674 194.221 264.277C200.277 266.877 205.768 267.16 212.401 267.16C222.96 267.16 233.779 266.901 244.292 265.966C252.117 265.27 259.783 264.306 267.637 263.824C272.892 263.502 278.05 262.438 283.292 262.053C288.643 261.661 293.902 262.191 299.226 261.395C303.553 260.747 307.776 260.529 312.149 260.488C316.671 260.447 321.033 259.584 325.489 259.088C329.531 258.639 333.125 257.587 337.023 256.617C340.313 255.798 343.757 255.454 346.935 254.476C349.292 253.75 348.39 256.03 348.765 257.585C349.985 262.647 351.404 267.638 352.47 272.741C355.654 287.982 361.404 302.682 363.703 318.104C364.454 323.144 364.705 328.421 364.768 333.507C364.814 337.194 364.751 340.916 363.934 344.544C362.591 350.516 360.345 356.269 357.658 361.883C355.851 365.658 353.823 369.343 351.938 373.085C350.77 375.403 349.878 377.93 348.417 380.127C346.373 383.203 345.274 386.744 343.091 389.764C342.956 389.95 341.869 391.902 341.794 391.885C340.799 391.664 338.488 393.718 337.787 394.129C335.274 395.606 332.5 397.026 329.589 397.774C323.047 399.455 316.095 400.257 309.417 401.419C303.265 402.489 297.235 403.209 290.958 403.746C285.779 404.189 280.547 404.495 275.349 404.652C270.648 404.794 265.878 404.374 261.198 404.858C253.969 405.605 246.559 404.915 239.289 405.496C231.808 406.094 224.299 406.526 216.778 406.526C214.09 406.526 211.281 406.747 208.626 406.34C206.29 405.982 203.416 406.36 201.192 405.599C199.192 404.915 197.02 404.258 194.869 403.911C193.081 403.622 190.951 403.132 189.264 404.014C188.207 404.567 189.734 404.862 190.307 404.467C192.764 402.767 193.991 397.222 194.661 394.809C196.302 388.897 197.523 382.607 196.583 376.503C195.711 370.842 192.104 366.012 192.183 360.112C192.224 357.012 193.353 353.527 193.85 350.434C194.117 348.771 194.253 353.779 194.267 355.458C194.295 358.853 194.397 362.282 194.174 365.672C193.685 373.11 190.579 380.254 189.658 387.622C189.315 390.365 189.629 392.203 191.349 394.582C192.716 396.473 194.842 396.76 197.139 396.024C202.426 394.328 207.057 390.545 210.988 387.108C216.436 382.344 221.704 377.176 226.274 371.726C228.79 368.724 231.241 365.569 233.129 362.212C233.897 360.846 233.481 362.31 233.384 363.221C232.879 367.928 230.926 372.471 228.867 376.791C228.351 377.874 225.702 384.772 223.958 384.966C223.904 384.972 223.863 378.099 223.865 377.862C223.952 366.868 224.872 355.889 225.532 344.915C226.396 330.552 227.521 316.184 227.617 301.796C227.657 295.776 228.011 289.606 227.524 283.593C227.03 277.485 220.02 289.289 219.302 290.45C219.119 290.746 216.259 295.466 217.357 294.815C220.588 292.9 223.546 290.574 226.621 288.473C234.051 283.396 241.719 279.522 251.332 279.845C259.253 280.111 267.07 281.552 274.955 282.192C283.485 282.885 292.239 283.336 300.801 282.934C306.234 282.679 311.795 282.066 316.967 280.504C320.036 279.577 322.999 278.415 326.091 277.539C328.872 276.75 331.573 275.338 334.336 274.656C335.622 274.338 334.088 277.07 333.503 278.136C330.515 283.571 326.187 288.02 320.996 291.891C316.53 295.222 311.786 297.686 305.78 297.41C302.112 297.241 298.544 296.356 294.965 295.701C289.007 294.609 283.063 293.83 276.993 293.415C266.365 292.688 256.464 293.387 246.422 296.73C240.421 298.728 233.617 301.838 229.562 306.449C228.773 307.347 227.524 309.195 228.126 310.444C228.616 311.46 231.522 311.311 232.434 311.433C241.982 312.709 250.688 317.518 260.596 317.054C267.63 316.725 274.72 313.796 281.37 311.968C292.294 308.965 303.295 306.18 314.211 303.155C320.353 301.453 326.314 299.297 332.46 297.616C334.039 297.184 334.192 297.142 334.985 298.295C336.172 300.023 339.175 299.629 339.547 301.549C340.497 306.448 338.856 311.054 336.235 315.345C331.16 323.654 324.778 331.109 320.163 339.685C316.663 346.188 313.412 352.767 309.532 359.103C305.243 366.107 302.276 375.029 294.386 379.612C285.619 384.705 273.028 385.054 262.958 384.287C259.957 384.058 255.811 384.196 257.215 380.868C259.702 374.97 259.873 368.58 259.299 362.377C258.817 357.165 258.098 352.007 258.049 346.768C258.026 344.393 258.141 337.27 258.049 339.643C257.727 347.934 253.557 355.398 251.911 363.448C250.548 370.114 251.465 376.571 258.072 380.683C265.282 385.171 271.98 379.392 275.835 374.073C284.759 361.761 283.954 344.522 279.633 330.954C277.883 325.457 275.512 318.379 267.706 320.864C258.546 323.78 246.613 331.994 244.014 340.714C241.352 349.644 252.299 353.216 260.434 351.628C272.69 349.236 281.872 338.952 283.64 328.297C283.663 328.159 283.92 325.114 284.219 325.147C284.684 325.198 283.944 330.401 283.895 330.748C283.173 335.806 280.358 341.832 284.312 346.439C285.846 348.227 289.001 349.086 291.445 348.869C297.13 348.363 300.566 343.266 303.048 339.314C306.669 333.548 309.041 327.518 310.273 321.008C310.598 319.292 310.424 316.99 311.223 315.366C311.722 314.351 312.082 315.361 312.149 315.963C312.535 319.394 311.135 322.427 309.092 325.27C305.371 330.45 300.778 335.086 297.049 340.261C294.821 343.354 291.846 348.093 293.02 351.957C294.191 355.814 299.971 356.479 303.673 356.694C310.838 357.108 317.517 354.737 323.683 351.669C332.824 347.121 338.945 339.709 345.175 332.478C345.25 332.391 346.204 331.011 346.217 331.016C347.174 331.356 345.86 335.368 345.731 335.772C343.945 341.366 340.454 346.307 339.13 352.06C337.983 357.049 335.268 362.053 331.812 366.104C328.702 369.749 324.649 372.684 321.228 376.091C319.865 377.448 317.771 379.307 315.994 380.209C314.613 380.911 313.44 382.377 311.733 382.433C310.039 382.489 308.332 382.433 306.637 382.433C304.621 382.433 303.071 382.987 303.071 380.951" stroke="#33CAE4" stroke-width="36" stroke-linecap="round"/>
<path d="M160.724 258.072C159.829 265.233 146.884 263.525 141.643 263.525C135.107 263.525 128.57 263.525 122.033 263.525C118.658 263.525 113.79 262.751 110.638 263.828C106.619 265.203 100.362 264.131 95.9871 264.131C93.3001 264.131 91.2295 263.571 89.8542 265.949C88.0278 269.106 85.746 272.311 84.4027 275.643C78.3988 290.534 82.3584 305.719 82.3584 321.084C82.3584 336.758 78.9512 352.042 78.9512 367.704C78.9512 377.033 80.6837 385.509 84.4027 394.262C85.8356 397.634 85.0841 402.026 85.0841 405.605C85.0841 409.277 87.7868 412.573 91.8985 412.573C95.7905 412.573 100.147 411.158 104.013 410.621C108.857 409.948 113.794 408.978 118.626 408.197C122.002 407.651 125.819 407.594 129.075 406.783C133.303 405.731 137.627 404.099 141.946 403.485C145.289 403.009 147.656 402.273 151.184 402.273C155.319 402.273 153.996 398.628 154.439 395.473C155.808 385.735 153.506 375.674 154.742 365.92C155.419 360.581 156.047 355.219 156.635 349.864C157.361 343.251 158.296 336.443 158.641 329.836C158.962 323.703 158.586 317.529 158.679 311.39C158.772 305.319 160.042 299.295 160.042 293.214C160.042 289.321 158.568 286.335 157.657 282.611C156.797 279.092 155.906 278.93 151.6 279.682C144.499 280.922 137.59 282.581 130.4 283.486C121.86 284.561 113.213 284.875 104.694 286.078C102.341 286.41 85.0841 288.433 85.0841 291.16C85.0841 296.718 85.8883 302.08 86.2956 307.62C87.3683 322.214 87.2983 336.841 87.9613 351.446C88.6683 367.021 90.3482 383.281 96.9714 397.863C97.2579 398.494 98.4696 402.86 99.5457 403.081C101.578 403.498 104.782 397.235 105.603 396.18C109.15 391.624 113.014 387.307 116.355 382.615C120.503 376.787 121.704 371.459 122.563 364.708C122.878 362.237 123.177 359.763 123.585 357.303C123.614 357.128 124.216 352.091 124.986 354.644C127.335 362.428 127.82 370.858 128.696 378.845C129.159 383.062 129.631 387.587 131.422 391.569C132.092 393.059 133.896 384.752 134.148 383.793C135.301 379.405 136.211 374.952 137.517 370.599C137.559 370.458 138.91 365.42 137.555 366.054C135.335 367.093 133.958 369.915 131.8 371.238C129.23 372.814 124.96 374.132 121.995 372.551C116.117 369.415 125.494 359.631 127.598 356.865C129.349 354.564 131.29 352.083 132.633 349.561C133.606 347.736 133.41 345.66 133.504 343.704C133.742 338.727 134.111 333.817 134.148 328.826C134.222 318.671 135.552 307.816 137.896 297.859C138.215 296.501 140.764 288.079 137.252 289.814C130.373 293.212 124.251 297.835 117.415 301.359C109.005 305.695 98.49 309.621 93.8671 317.786C88.8509 326.645 95.7086 333.364 97.9936 341.617C99.42 346.77 100.076 352.141 100.076 357.437C100.076 357.808 99.8984 360.75 100.151 359.625C101.468 353.773 104.445 348.079 106.36 342.358C108.976 334.543 111.868 326.778 114.083 318.863C114.775 316.391 115.419 313.899 115.673 311.357C115.682 311.269 115.607 308.268 115.787 310.347C116.682 320.696 115.924 329.867 111.622 339.766C107.791 348.583 99.5247 356.431 97.5014 365.785C97.4552 365.999 104.107 361.364 104.922 360.77C108.151 358.415 111.676 356.613 114.386 353.802" stroke="#FFEF40" stroke-width="36" stroke-linecap="round"/>
<path d="M392.956 256.627C391.144 255.309 388.365 255.323 386.543 253.851C385.628 253.111 384.348 252.436 383.532 251.62C383.082 251.17 385.594 251.273 385.707 251.273C387.826 251.273 389.945 251.273 392.064 251.273C395.365 251.273 398.648 250.826 401.878 250.826C406.997 250.826 413.238 250.487 418.161 249.141C419.88 248.67 420.985 248.141 421.061 250.033C421.155 252.373 421.677 255.273 422.315 257.545C424.538 265.451 421.061 274.72 421.061 282.732C421.061 292.713 421.045 303.018 422.176 312.951C423.891 328.005 421.084 343.355 420.029 358.367C419.541 365.306 420.413 371.713 421.089 378.621C421.514 382.973 421.563 387.326 421.563 391.735C421.563 394.633 421.061 397.404 421.061 400.312C421.061 405.282 423.168 390.531 424.825 385.785C426.31 381.529 426.898 375.399 426.052 370.886C425.41 367.464 424.768 370.203 424.574 372.274C424.062 377.739 423.57 383.128 423.57 388.611C423.57 390.77 424.072 392.813 424.072 394.958C424.072 396.47 425.04 397.979 424.462 399.519C422.988 403.452 415.682 399.866 412.529 399.866C403.328 399.866 394.127 399.866 384.926 399.866C382.882 399.866 379.993 400.698 381.19 398.28C383.124 394.372 385.585 390.677 387.408 386.727C389.187 382.87 389.868 378.598 390.447 374.481C390.97 370.759 392.454 367.24 392.454 363.474C392.454 362.52 392.65 363.717 393.179 362.978C393.97 361.873 393.983 359.672 394.35 358.367C394.786 356.818 394.462 362.02 394.462 362.482C394.462 367.033 394.434 371.524 396.358 375.819C397.053 377.373 398.738 380.565 400.373 381.571C401.572 382.309 402.732 383.134 403.997 383.777C406.759 385.181 407.51 385.516 407.51 382.29C407.51 376.116 406.318 370.552 404.22 364.664C402.747 360.527 400.519 356.574 399.257 352.393C398.549 350.045 398.328 347.986 398.504 345.55C398.768 341.922 400.069 338.393 400.484 334.767C401.054 329.785 400.986 324.793 400.986 319.793C400.986 311.92 400.398 303.846 401.097 295.995C402.023 285.605 405.956 275.234 405.503 264.759C405.413 262.688 401.693 261.413 399.871 261.189C395.141 260.607 390.159 260.824 386.487 263.792C382.468 267.041 383.667 271.001 384.703 274.947C385.904 279.523 388.077 283.713 389.053 288.309C390.715 296.144 392.341 303.367 392.454 311.414C392.57 319.626 393.87 327.954 395.214 336.081C395.899 340.218 395.619 344.567 395.995 348.748C396.205 351.078 396.469 353.295 396.469 355.665C396.469 360.325 395.967 364.883 395.967 369.523" stroke="#FFEF40" stroke-width="36" stroke-linecap="round"/>
<path d="M423.519 354.249C422.547 355.114 423.135 358.317 423.198 359.48C423.273 360.832 423.517 362.205 423.783 363.537C423.887 364.056 424.029 365.041 424.349 363.822C424.815 362.045 424.516 360.049 424.537 358.239C424.554 356.753 424.677 355.094 425.084 353.646C425.356 352.677 426.033 349.847 426.234 350.829C427.104 355.081 426.54 359.599 426.913 363.906" stroke="#FFEF40" stroke-width="40" stroke-linecap="round"/>
<path d="M382.791 399.816C383.742 399.605 384.07 396.826 384.149 396.195C384.453 393.76 385.333 391.465 385.488 388.986C385.849 383.196 385.289 377.504 386.525 371.752C386.993 369.571 387.256 366.779 388.75 364.945C390.634 362.632 392.265 360.17 393.633 357.585C395.649 353.777 395.495 348.581 396.197 344.459C396.528 342.517 396.678 340.551 397.121 338.624C397.637 336.382 397.352 340.782 397.31 341.24C396.849 346.245 395.896 351.19 395.349 356.177C395.275 356.851 394.88 360.976 393.973 359.161C392.388 355.992 391.983 351.992 391.955 348.583C391.933 345.889 391.496 342.805 392.03 340.133C392.387 338.35 393.74 335.501 395.688 334.634" stroke="#FFEF40" stroke-width="40" stroke-linecap="round"/>
<path fill-rule="evenodd" clip-rule="evenodd" d="M250.612 0.707672C250.612 1.14006 246.898 1.41534 241.061 1.41534C235.225 1.41534 231.51 1.69063 231.51 2.12302C231.51 2.54267 228.592 2.83069 224.347 2.83069C217.715 2.83069 217.184 2.93542 217.184 4.24603C217.184 5.34717 216.653 5.66138 214.796 5.66138C213.483 5.66138 212.408 5.97983 212.408 6.36905C212.408 6.75827 211.334 7.07672 210.02 7.07672C208.707 7.07672 207.633 7.39517 207.633 7.78439C207.633 8.17361 206.916 8.49206 206.041 8.49206C205.165 8.49206 204.449 8.81052 204.449 9.19974C204.449 9.58895 203.9 9.90741 203.229 9.90741C201.223 9.90741 196.49 14.6134 196.49 16.6069C196.49 17.5927 196.132 18.3995 195.694 18.3995C195.256 18.3995 194.898 19.3548 194.898 20.5225C194.898 21.6901 194.54 22.6455 194.102 22.6455C193.664 22.6455 193.306 23.2824 193.306 24.0608C193.306 24.8393 192.948 25.4762 192.51 25.4762C192.072 25.4762 191.714 26.4315 191.714 27.5992C191.714 28.7669 191.356 29.7222 190.918 29.7222C190.481 29.7222 190.122 30.2891 190.122 30.9812C190.122 31.674 189.406 32.6994 188.531 33.2606C187.655 33.8218 186.939 34.8472 186.939 35.54C186.939 36.2321 186.581 36.7989 186.143 36.7989C185.705 36.7989 185.347 38.3912 185.347 40.3373C185.347 42.2834 184.989 43.8757 184.551 43.8757C184.113 43.8757 183.755 45.1495 183.755 46.7063C183.755 48.2632 183.397 49.537 182.959 49.537C182.473 49.537 182.163 52.8397 182.163 58.0291C182.163 63.2185 181.854 66.5212 181.367 66.5212C180.847 66.5212 180.571 79.2593 180.571 103.32C180.571 127.381 180.296 140.119 179.776 140.119C179.338 140.119 178.98 141.074 178.98 142.242C178.98 143.41 178.621 144.365 178.184 144.365C177.701 144.365 177.388 147.431 177.388 152.149C177.388 156.868 177.074 159.934 176.592 159.934C176.154 159.934 175.796 160.889 175.796 162.057C175.796 163.225 175.438 164.18 175 164.18C174.507 164.18 174.204 167.954 174.204 174.087C174.204 180.221 173.901 183.995 173.408 183.995C172.931 183.995 172.612 186.825 172.612 191.071C172.612 195.317 172.294 198.148 171.816 198.148C171.379 198.148 171.02 199.104 171.02 200.271C171.02 201.439 170.662 202.394 170.224 202.394C169.714 202.394 169.429 208.999 169.429 220.794C169.429 237.96 169.334 239.193 168.013 239.193C167.233 239.193 166.08 239.83 165.449 240.608C164.495 241.785 163.388 242.024 158.906 242.024C155.839 242.024 153.51 241.718 153.51 241.316C153.51 240.861 145.551 240.608 131.224 240.608C116.898 240.608 108.939 240.861 108.939 241.316C108.939 241.763 103.367 242.024 93.8163 242.024C84.2653 242.024 78.6939 242.284 78.6939 242.731C78.6939 243.136 76.3061 243.439 73.1224 243.439C69.9388 243.439 67.551 243.743 67.551 244.147C67.551 244.536 66.8347 244.854 65.9592 244.854C64.5186 244.854 64.3673 245.327 64.3673 249.808C64.3673 252.639 64.0259 254.762 63.5714 254.762C63.1337 254.762 62.7755 255.399 62.7755 256.177C62.7755 256.956 62.4173 257.593 61.9796 257.593C61.4973 257.593 61.1837 260.659 61.1837 265.377C61.1837 270.095 60.8701 273.161 60.3878 273.161C59.9158 273.161 59.5918 275.756 59.5918 279.53C59.5918 283.304 59.2679 285.899 58.7959 285.899C58.2722 285.899 58 304.299 58 339.683C58 375.066 58.2722 393.466 58.7959 393.466C59.2337 393.466 59.5918 394.421 59.5918 395.589C59.5918 396.756 59.95 397.712 60.3878 397.712C60.8804 397.712 61.1837 401.486 61.1837 407.619C61.1837 413.752 61.4869 417.526 61.9796 417.526C62.4173 417.526 62.7755 418.163 62.7755 418.942C62.7755 419.72 63.1337 420.357 63.5714 420.357C64.0092 420.357 64.3673 421.312 64.3673 422.48C64.3673 423.648 64.7255 424.603 65.1633 424.603C65.601 424.603 65.9592 425.559 65.9592 426.726C65.9592 427.894 66.3173 428.849 66.7551 428.849C67.1929 428.849 67.551 429.486 67.551 430.265C67.551 431.647 68.0819 431.68 90.6327 431.68C105.49 431.68 113.714 431.428 113.714 430.972C113.714 430.579 115.837 430.265 118.49 430.265C121.143 430.265 123.265 429.95 123.265 429.557C123.265 429.168 124.34 428.849 125.653 428.849C126.966 428.849 128.041 428.531 128.041 428.142C128.041 427.752 129.473 427.434 131.224 427.434C132.976 427.434 134.408 427.115 134.408 426.726C134.408 426.333 136.531 426.018 139.184 426.018C141.836 426.018 143.959 425.704 143.959 425.311C143.959 424.878 147.674 424.603 153.51 424.603H163.061V478.386V532.169H205.245C246.898 532.169 247.429 532.187 247.429 533.585C247.429 534.892 247.959 535 254.416 535C260.49 535 261.554 534.815 262.551 533.585C263.225 532.754 264.612 532.169 265.911 532.169C267.127 532.169 268.122 531.851 268.122 531.462C268.122 531.072 269.913 530.754 272.102 530.754C274.291 530.754 276.082 530.435 276.082 530.046C276.082 529.586 287.755 529.339 309.51 529.339H342.939V489.709C342.939 463.761 343.213 450.079 343.735 450.079C344.189 450.079 344.531 447.956 344.531 445.126C344.531 442.295 344.872 440.172 345.327 440.172C345.764 440.172 346.122 439.217 346.122 438.049C346.122 436.881 346.481 435.926 346.918 435.926C347.356 435.926 347.714 434.971 347.714 433.803C347.714 432.635 348.072 431.68 348.51 431.68C348.948 431.68 349.306 430.725 349.306 429.557C349.306 428.389 349.664 427.434 350.102 427.434C350.54 427.434 350.898 426.16 350.898 424.603C350.898 423.046 351.256 421.772 351.694 421.772C352.132 421.772 352.49 421.272 352.49 420.661C352.49 418.669 354.647 417.526 358.403 417.526C360.404 417.526 362.041 417.845 362.041 418.234C362.041 418.654 364.959 418.942 369.204 418.942C373.449 418.942 376.367 419.23 376.367 419.649C376.367 420.088 380.612 420.357 387.51 420.357C394.408 420.357 398.653 420.627 398.653 421.065C398.653 421.454 399.728 421.772 401.041 421.772C402.354 421.772 403.429 422.091 403.429 422.48C403.429 422.909 406.877 423.188 412.184 423.188C417.49 423.188 420.939 423.467 420.939 423.895C420.939 424.336 425.449 424.603 432.878 424.603H444.816V422.48C444.816 421.312 445.174 420.357 445.612 420.357C446.05 420.357 446.408 419.083 446.408 417.526C446.408 415.97 446.766 414.696 447.204 414.696C447.728 414.696 448 396.296 448 360.913C448 325.529 447.728 307.13 447.204 307.13C446.722 307.13 446.408 304.063 446.408 299.345C446.408 294.627 446.095 291.561 445.612 291.561C445.104 291.561 444.816 285.664 444.816 275.284C444.816 264.905 444.528 259.008 444.02 259.008C443.513 259.008 443.224 253.111 443.224 242.731V226.455H423.327C410.592 226.455 403.429 226.71 403.429 227.163C403.429 227.552 402.712 227.87 401.837 227.87C400.961 227.87 400.245 228.189 400.245 228.578C400.245 228.967 398.812 229.286 397.061 229.286C395.31 229.286 393.878 229.604 393.878 229.993C393.878 230.433 389.481 230.701 382.28 230.701C370.266 230.701 368.408 230.281 368.408 227.567C368.408 226.679 367.444 226.455 363.633 226.455H358.857V213.009C358.857 204.517 359.15 199.563 359.653 199.563C360.091 199.563 360.449 198.29 360.449 196.733C360.449 195.176 360.807 193.902 361.245 193.902C361.744 193.902 362.041 189.42 362.041 181.872C362.041 174.323 362.338 169.841 362.837 169.841C363.358 169.841 363.633 155.452 363.633 128.089C363.633 100.725 363.358 86.336 362.837 86.336C362.359 86.336 362.041 83.5053 362.041 79.2593C362.041 75.0132 361.722 72.1825 361.245 72.1825C360.747 72.1825 360.449 67.9365 360.449 60.8598C360.449 53.7831 360.151 49.537 359.653 49.537C359.215 49.537 358.857 47.9448 358.857 45.9987C358.857 44.0526 358.499 42.4603 358.061 42.4603C357.623 42.4603 357.265 41.1865 357.265 39.6296C357.265 38.0728 356.907 36.7989 356.469 36.7989C356.015 36.7989 355.673 34.6759 355.673 31.8452C355.673 29.0145 355.332 26.8915 354.878 26.8915C354.44 26.8915 354.082 26.2546 354.082 25.4762C354.082 24.6978 353.723 24.0608 353.286 24.0608C352.848 24.0608 352.49 23.5584 352.49 22.9441C352.49 22.3292 351.057 20.6032 349.306 19.1071C347.555 17.6111 346.122 16.021 346.122 15.5737C346.122 14.4613 344.087 12.7381 342.773 12.7381C342.182 12.7381 341.182 12.1012 340.551 11.3228C339.877 10.4919 338.49 9.90741 337.191 9.90741C335.51 9.90741 334.98 9.56772 334.98 8.49206C334.98 7.39093 334.449 7.07672 332.592 7.07672C331.279 7.07672 330.204 6.75827 330.204 6.36905C330.204 5.97983 329.488 5.66138 328.612 5.66138C327.737 5.66138 327.02 5.34292 327.02 4.9537C327.02 4.56448 325.946 4.24603 324.633 4.24603C323.319 4.24603 322.245 3.92758 322.245 3.53836C322.245 3.14914 320.454 2.83069 318.265 2.83069C316.077 2.83069 314.286 2.51224 314.286 2.12302C314.286 1.7338 312.853 1.41534 311.102 1.41534C309.351 1.41534 307.918 1.09689 307.918 0.707672C307.918 0.249101 297.836 0 279.265 0C260.694 0 250.612 0.249101 250.612 0.707672ZM261.755 12.0304C261.755 12.4628 258.041 12.7381 252.204 12.7381C246.368 12.7381 242.653 13.0134 242.653 13.4458C242.653 13.8583 240 14.1534 236.286 14.1534C230.449 14.1534 229.918 14.2716 229.918 15.5688C229.918 16.7485 229.387 16.9841 226.735 16.9841C224.984 16.9841 223.551 17.3026 223.551 17.6918C223.551 18.081 222.477 18.3995 221.163 18.3995C219.85 18.3995 218.776 18.7179 218.776 19.1071C218.776 19.4964 218.059 19.8148 217.184 19.8148C216.308 19.8148 215.592 20.1333 215.592 20.5225C215.592 20.9117 214.876 21.2302 214 21.2302C213.004 21.2302 212.408 21.7022 212.408 22.4891C212.408 23.1819 211.692 24.2073 210.816 24.7685C209.882 25.3679 209.224 26.6007 209.224 27.7556C209.224 28.8369 208.866 29.7222 208.429 29.7222C207.991 29.7222 207.633 30.3591 207.633 31.1376C207.633 31.916 207.274 32.5529 206.837 32.5529C206.399 32.5529 206.041 33.1898 206.041 33.9683C206.041 34.7467 205.683 35.3836 205.245 35.3836C204.807 35.3836 204.449 36.339 204.449 37.5066C204.449 38.6743 204.091 39.6296 203.653 39.6296C203.215 39.6296 202.857 40.1965 202.857 40.8886C202.857 41.5814 202.141 42.6068 201.265 43.168C200.39 43.7292 199.673 44.7546 199.673 45.4474C199.673 46.1395 199.315 46.7063 198.878 46.7063C198.44 46.7063 198.082 48.2986 198.082 50.2447C198.082 52.1908 197.723 53.7831 197.286 53.7831C196.848 53.7831 196.49 55.0569 196.49 56.6138C196.49 58.1706 196.132 59.4444 195.694 59.4444C195.208 59.4444 194.898 62.7471 194.898 67.9365C194.898 73.1259 194.588 76.4286 194.102 76.4286C193.582 76.4286 193.306 89.1667 193.306 113.228C193.306 137.288 193.031 150.026 192.51 150.026C192.072 150.026 191.714 150.982 191.714 152.149C191.714 153.317 191.356 154.272 190.918 154.272C190.436 154.272 190.122 157.339 190.122 162.057C190.122 166.775 189.809 169.841 189.327 169.841C188.889 169.841 188.531 170.797 188.531 171.964C188.531 173.132 188.172 174.087 187.735 174.087C187.242 174.087 186.939 177.861 186.939 183.995C186.939 190.128 186.636 193.902 186.143 193.902C185.665 193.902 185.347 196.733 185.347 200.979C185.347 205.225 185.029 208.056 184.551 208.056C184.113 208.056 183.755 209.011 183.755 210.179C183.755 211.346 183.397 212.302 182.959 212.302C182.458 212.302 182.163 217.02 182.163 225.04C182.163 237.306 182.222 237.778 183.755 237.778C184.816 237.778 185.347 238.25 185.347 239.193C185.347 240.359 185.878 240.608 188.355 240.608C190.45 240.608 191.711 241.038 192.51 242.024C193.383 243.099 194.571 243.439 197.462 243.439C199.553 243.439 201.265 243.758 201.265 244.147C201.265 244.608 214 244.854 237.878 244.854C261.755 244.854 274.49 244.608 274.49 244.147C274.49 243.734 277.143 243.439 280.857 243.439C284.572 243.439 287.224 243.144 287.224 242.731C287.224 242.312 290.143 242.024 294.388 242.024C298.632 242.024 301.551 241.736 301.551 241.316C301.551 240.878 305.796 240.608 312.694 240.608C319.592 240.608 323.837 240.339 323.837 239.901C323.837 239.512 324.553 239.193 325.429 239.193C326.304 239.193 327.02 238.875 327.02 238.485C327.02 238.096 328.095 237.778 329.408 237.778C330.721 237.778 331.796 237.459 331.796 237.07C331.796 236.681 333.15 236.362 334.804 236.362C336.899 236.362 338.16 235.933 338.959 234.947C339.59 234.169 340.948 233.532 341.977 233.532C346.047 233.532 346.122 233.111 346.122 210.583C346.122 197.104 346.406 189.656 346.918 189.656C347.356 189.656 347.714 188.382 347.714 186.825C347.714 185.269 348.072 183.995 348.51 183.995C349.009 183.995 349.306 179.513 349.306 171.964C349.306 164.416 349.603 159.934 350.102 159.934C350.621 159.934 350.898 148.847 350.898 128.089C350.898 107.33 350.621 96.2434 350.102 96.2434C349.624 96.2434 349.306 93.4127 349.306 89.1667C349.306 84.9206 348.988 82.0899 348.51 82.0899C348.013 82.0899 347.714 77.8439 347.714 70.7672C347.714 63.6905 347.416 59.4444 346.918 59.4444C346.481 59.4444 346.122 57.8522 346.122 55.9061C346.122 53.96 345.764 52.3677 345.327 52.3677C344.889 52.3677 344.531 51.0939 344.531 49.537C344.531 47.9802 344.172 46.7063 343.735 46.7063C343.28 46.7063 342.939 44.5833 342.939 41.7526C342.939 38.922 342.597 36.7989 342.143 36.7989C341.705 36.7989 341.347 36.162 341.347 35.3836C341.347 34.6052 340.989 33.9683 340.551 33.9683C340.113 33.9683 339.755 33.4658 339.755 32.8515C339.755 32.2366 338.322 30.5106 336.571 29.0145C334.82 27.5185 333.388 25.7925 333.388 25.1776C333.388 24.5633 332.75 24.0608 331.972 24.0608C331.193 24.0608 330.039 23.4239 329.408 22.6455C328.775 21.8649 327.348 21.2302 326.224 21.2302C325.101 21.2302 323.674 20.5954 323.041 19.8148C322.41 19.0364 321.256 18.3995 320.477 18.3995C319.699 18.3995 319.061 18.081 319.061 17.6918C319.061 17.3026 318.345 16.9841 317.469 16.9841C316.594 16.9841 315.878 16.6657 315.878 16.2765C315.878 15.8872 314.803 15.5688 313.49 15.5688C312.177 15.5688 311.102 15.2503 311.102 14.8611C311.102 14.4719 309.311 14.1534 307.122 14.1534C304.934 14.1534 303.143 13.835 303.143 13.4458C303.143 13.0565 301.71 12.7381 299.959 12.7381C298.208 12.7381 296.775 12.4196 296.775 12.0304C296.775 11.5803 290.408 11.3228 279.265 11.3228C268.122 11.3228 261.755 11.5803 261.755 12.0304ZM212.408 99.0741C212.408 99.8525 212.05 100.489 211.612 100.489C211.174 100.489 210.816 101.763 210.816 103.32C210.816 105.422 210.494 106.151 209.566 106.151C206.705 106.151 206.041 107.94 206.041 115.654V123.135H217.98H229.918V119.597C229.918 117.65 230.277 116.058 230.714 116.058C232.055 116.058 231.738 99.8829 230.373 98.67C229.532 97.9213 227.053 97.6587 220.822 97.6587C212.939 97.6587 212.408 97.7479 212.408 99.0741ZM266.73 105.124L263.347 108.241V115.688V123.135H272.557C282.065 123.135 284.041 122.596 284.041 120.001C284.041 119.361 284.716 118.889 285.633 118.889C287.092 118.889 287.224 118.417 287.224 113.228C287.224 108.038 287.092 107.566 285.633 107.566C284.306 107.566 284.041 107.094 284.041 104.735V101.905L277.077 101.956L270.112 102.007L266.73 105.124ZM298.367 173.789C298.367 174.404 296.935 176.13 295.184 177.626C293.406 179.145 292 181.017 292 181.867C292 183.652 290.251 185.41 288.475 185.41C287.787 185.41 287.224 185.912 287.224 186.527C287.224 187.142 285.792 188.868 284.041 190.364C282.268 191.878 280.857 193.756 280.857 194.601C280.857 195.489 279.21 197.544 276.878 199.563C274.144 201.931 272.898 203.578 272.898 204.825C272.898 205.984 272.457 206.64 271.678 206.64C270.093 206.64 264.939 211.223 264.939 212.632C264.939 213.229 264.301 213.717 263.523 213.717C262.744 213.717 261.59 214.354 260.959 215.132C260.04 216.267 258.899 216.548 255.212 216.548C252.676 216.548 250.612 216.23 250.612 215.84C250.612 215.451 249.896 215.132 249.02 215.132C248.145 215.132 247.429 214.814 247.429 214.425C247.429 214.035 246.712 213.717 245.837 213.717C244.961 213.717 244.245 213.398 244.245 213.009C244.245 212.62 243.607 212.302 242.829 212.302C242.05 212.302 240.896 211.665 240.265 210.886C239.634 210.108 238.634 209.471 238.043 209.471C236.729 209.471 234.694 207.748 234.694 206.635C234.694 206.188 233.261 204.598 231.51 203.102C229.707 201.562 228.327 199.714 228.327 198.842C228.327 197.994 227.252 196.408 225.939 195.317C224.626 194.227 223.551 192.953 223.551 192.487C223.551 192.02 222.477 190.747 221.163 189.656C219.85 188.566 218.776 187.164 218.776 186.542C218.776 185.588 217.645 185.41 211.612 185.41H204.449V191.779C204.449 197.097 204.655 198.148 205.699 198.148C207.168 198.148 209.224 199.811 209.224 200.998C209.224 201.454 210.299 202.719 211.612 203.81C212.926 204.9 214 206.302 214 206.924C214 207.547 214.358 208.056 214.796 208.056C215.234 208.056 215.592 208.692 215.592 209.471C215.592 210.249 215.95 210.886 216.388 210.886C216.826 210.886 217.184 211.523 217.184 212.302C217.184 213.117 217.715 213.717 218.434 213.717C219.882 213.717 221.959 215.374 221.959 216.529C221.959 217.705 225.68 220.794 227.097 220.794C227.796 220.794 228.327 221.404 228.327 222.209C228.327 223.285 228.857 223.624 230.538 223.624C231.837 223.624 233.224 224.209 233.898 225.04C234.572 225.87 235.959 226.455 237.258 226.455C238.474 226.455 239.469 226.773 239.469 227.163C239.469 227.552 241.26 227.87 243.449 227.87C245.638 227.87 247.429 228.189 247.429 228.578C247.429 229.018 251.813 229.286 258.99 229.286H270.552L274.113 226.12C276.071 224.379 277.673 222.468 277.673 221.874C277.673 221.266 278.369 220.794 279.265 220.794C280.326 220.794 280.857 220.322 280.857 219.378C280.857 218.563 281.388 217.963 282.108 217.963C283.881 217.963 285.633 216.207 285.633 214.43C285.633 213.546 287.288 211.484 289.612 209.471C291.801 207.575 293.592 205.526 293.592 204.917C293.592 204.308 293.95 203.81 294.388 203.81C294.826 203.81 295.184 203.314 295.184 202.709C295.184 202.103 297.333 199.733 299.959 197.44C303.327 194.502 304.735 192.74 304.735 191.464C304.735 190.128 305.15 189.656 306.327 189.656C307.387 189.656 307.918 189.184 307.918 188.241C307.918 187.297 308.449 186.825 309.51 186.825C310.996 186.825 311.102 186.353 311.102 179.749V172.672H304.735C299.465 172.672 298.367 172.864 298.367 173.789ZM414.571 238.485C414.571 238.875 413.855 239.193 412.98 239.193C412.104 239.193 411.388 239.512 411.388 239.901C411.388 240.29 409.955 240.608 408.204 240.608C406.453 240.608 405.02 240.927 405.02 241.316C405.02 241.764 399.184 242.024 389.102 242.024H373.184V245.562C373.184 247.508 373.542 249.101 373.98 249.101C374.417 249.101 374.776 250.693 374.776 252.639C374.776 254.585 375.134 256.177 375.571 256.177C376.014 256.177 376.367 258.065 376.367 260.423C376.367 262.782 376.721 264.669 377.163 264.669C377.618 264.669 377.959 266.792 377.959 269.623C377.959 272.454 378.301 274.577 378.755 274.577C379.21 274.577 379.551 276.7 379.551 279.53C379.551 282.361 379.892 284.484 380.347 284.484C380.867 284.484 381.143 297.458 381.143 321.991C381.143 346.524 380.867 359.497 380.347 359.497C379.892 359.497 379.551 361.62 379.551 364.451C379.551 367.282 379.21 369.405 378.755 369.405C378.317 369.405 377.959 370.36 377.959 371.528C377.959 372.695 377.601 373.651 377.163 373.651C376.709 373.651 376.367 375.774 376.367 378.604C376.367 381.435 376.026 383.558 375.571 383.558C375.134 383.558 374.776 384.832 374.776 386.389C374.776 387.946 374.417 389.22 373.98 389.22C373.542 389.22 373.184 389.856 373.184 390.635C373.184 391.413 372.826 392.05 372.388 392.05C371.95 392.05 371.592 393.006 371.592 394.173C371.592 395.341 371.234 396.296 370.796 396.296C370.358 396.296 370 396.933 370 397.712C370 398.49 369.642 399.127 369.204 399.127C368.766 399.127 368.408 400.082 368.408 401.25C368.408 402.418 368.05 403.373 367.612 403.373C367.174 403.373 366.816 404.01 366.816 404.788C366.816 405.968 367.347 406.204 370 406.204C371.751 406.204 373.184 406.522 373.184 406.911C373.184 407.331 376.102 407.619 380.347 407.619C384.592 407.619 387.51 407.907 387.51 408.327C387.51 408.765 391.755 409.034 398.653 409.034C405.551 409.034 409.796 409.304 409.796 409.742C409.796 410.131 410.87 410.45 412.184 410.45C413.497 410.45 414.571 410.768 414.571 411.157C414.571 411.585 417.906 411.865 422.985 411.865C432.519 411.865 433.673 411.374 433.673 407.315C433.673 405.926 434.032 404.788 434.469 404.788C434.991 404.788 435.265 389.692 435.265 360.913C435.265 332.134 434.991 317.037 434.469 317.037C433.987 317.037 433.673 313.971 433.673 309.253C433.673 304.535 433.36 301.468 432.878 301.468C432.37 301.468 432.082 295.571 432.082 285.192C432.082 274.812 431.793 268.915 431.286 268.915C430.78 268.915 430.49 263.254 430.49 253.347V237.778H422.531C417.755 237.778 414.571 238.061 414.571 238.485ZM349.306 246.978C349.306 247.367 347.873 247.685 346.122 247.685C344.371 247.685 342.939 248.004 342.939 248.393C342.939 248.782 341.864 249.101 340.551 249.101C339.238 249.101 338.163 249.419 338.163 249.808C338.163 250.197 337.447 250.516 336.571 250.516C335.696 250.516 334.98 250.834 334.98 251.224C334.98 251.662 330.735 251.931 323.837 251.931C316.939 251.931 312.694 252.201 312.694 252.639C312.694 253.059 309.775 253.347 305.531 253.347C301.286 253.347 298.367 253.635 298.367 254.054C298.367 254.467 295.715 254.762 292 254.762C288.285 254.762 285.633 255.057 285.633 255.47C285.633 255.934 269.183 256.177 237.878 256.177C206.572 256.177 190.122 255.934 190.122 255.47C190.122 255.08 188.69 254.762 186.939 254.762H183.755V301.468C183.755 332.134 183.482 348.175 182.959 348.175C182.521 348.175 182.163 349.13 182.163 350.298C182.163 351.465 181.805 352.421 181.367 352.421C180.87 352.421 180.571 356.667 180.571 363.743C180.571 370.82 180.273 375.066 179.776 375.066C179.265 375.066 178.98 381.907 178.98 394.173V413.28H209.224C228.857 413.28 239.469 413.032 239.469 412.573C239.469 412.127 244.776 411.865 253.796 411.865C262.816 411.865 268.122 411.603 268.122 411.157C268.122 410.701 276.878 410.45 292.796 410.45C308.714 410.45 317.469 410.199 317.469 409.742C317.469 409.353 318.902 409.034 320.653 409.034C322.404 409.034 323.837 408.716 323.837 408.327C323.837 407.938 325.628 407.619 327.816 407.619C330.005 407.619 331.796 407.301 331.796 406.911C331.796 406.522 333.229 406.204 334.98 406.204C336.731 406.204 338.163 405.885 338.163 405.496C338.163 405.107 339.159 404.788 340.375 404.788C341.674 404.788 343.061 404.204 343.735 403.373C344.366 402.595 345.724 401.958 346.753 401.958C348.819 401.958 350.898 400.464 350.898 398.98C350.898 398.454 351.614 397.565 352.49 397.004C353.365 396.443 354.082 395.417 354.082 394.725C354.082 394.032 354.44 393.466 354.878 393.466C355.315 393.466 355.673 392.51 355.673 391.343C355.673 390.175 356.032 389.22 356.469 389.22C356.907 389.22 357.265 388.583 357.265 387.804C357.265 387.026 357.623 386.389 358.061 386.389C358.499 386.389 358.857 385.434 358.857 384.266C358.857 383.098 359.215 382.143 359.653 382.143C360.091 382.143 360.449 381.506 360.449 380.728C360.449 379.949 360.807 379.312 361.245 379.312C361.683 379.312 362.041 378.038 362.041 376.481C362.041 374.925 362.399 373.651 362.837 373.651C363.291 373.651 363.633 371.528 363.633 368.697C363.633 365.866 363.974 363.743 364.429 363.743C364.866 363.743 365.224 362.788 365.224 361.62C365.224 360.453 365.583 359.497 366.02 359.497C366.475 359.497 366.816 357.374 366.816 354.544C366.816 351.713 367.158 349.59 367.612 349.59C368.13 349.59 368.408 339.918 368.408 321.991C368.408 304.063 368.13 294.392 367.612 294.392C367.158 294.392 366.816 292.269 366.816 289.438C366.816 286.607 366.475 284.484 366.02 284.484C365.566 284.484 365.224 282.361 365.224 279.53C365.224 276.7 364.883 274.577 364.429 274.577C363.986 274.577 363.633 272.689 363.633 270.331C363.633 267.972 363.279 266.085 362.837 266.085C362.399 266.085 362.041 264.492 362.041 262.546C362.041 260.6 361.683 259.008 361.245 259.008C360.79 259.008 360.449 256.885 360.449 254.054C360.449 251.224 360.108 249.101 359.653 249.101C359.215 249.101 358.857 248.464 358.857 247.685C358.857 246.427 358.326 246.27 354.082 246.27C351.429 246.27 349.306 246.584 349.306 246.978ZM120.082 252.639C120.082 253.086 114.51 253.347 104.959 253.347C95.4082 253.347 89.8367 253.607 89.8367 254.054C89.8367 254.454 87.5628 254.762 84.6068 254.762C78.0317 254.762 77.102 255.501 77.102 260.727C77.102 262.895 76.7439 264.669 76.3061 264.669C75.8684 264.669 75.5102 265.306 75.5102 266.085C75.5102 266.863 75.152 267.5 74.7143 267.5C74.232 267.5 73.9184 270.566 73.9184 275.284C73.9184 280.002 73.6048 283.069 73.1224 283.069C72.6505 283.069 72.3265 285.664 72.3265 289.438C72.3265 293.212 72.0026 295.807 71.5306 295.807C71.0085 295.807 70.7347 310.904 70.7347 339.683C70.7347 368.461 71.0085 383.558 71.5306 383.558C71.9684 383.558 72.3265 384.195 72.3265 384.974C72.3265 385.752 72.6847 386.389 73.1224 386.389C73.6175 386.389 73.9184 390.399 73.9184 397.004C73.9184 403.609 74.2192 407.619 74.7143 407.619C75.152 407.619 75.5102 408.256 75.5102 409.034C75.5102 409.813 75.8684 410.45 76.3061 410.45C76.7439 410.45 77.102 411.405 77.102 412.573C77.102 413.74 77.4602 414.696 77.898 414.696C78.3357 414.696 78.6939 415.515 78.6939 416.515C78.6939 419.963 80.0358 420.357 91.77 420.357C98.4406 420.357 102.571 420.087 102.571 419.649C102.571 419.256 104.694 418.942 107.347 418.942C110 418.942 112.122 418.628 112.122 418.234C112.122 417.845 113.197 417.526 114.51 417.526C115.823 417.526 116.898 417.208 116.898 416.819C116.898 416.43 118.331 416.111 120.082 416.111C121.833 416.111 123.265 415.793 123.265 415.403C123.265 415.01 125.388 414.696 128.041 414.696C130.694 414.696 132.816 414.382 132.816 413.988C132.816 413.54 138.653 413.28 148.735 413.28H164.653V409.742C164.653 407.796 165.011 406.204 165.449 406.204C165.962 406.204 166.245 398.891 166.245 385.681C166.245 372.471 166.528 365.159 167.041 365.159C167.538 365.159 167.837 360.913 167.837 353.836C167.837 346.759 168.135 342.513 168.633 342.513C169.07 342.513 169.429 341.558 169.429 340.39C169.429 339.223 169.787 338.267 170.224 338.267C170.745 338.267 171.02 325.293 171.02 300.761C171.02 276.228 170.745 263.254 170.224 263.254C169.77 263.254 169.429 261.131 169.429 258.3V253.347H155.898C147.408 253.347 142.367 253.083 142.367 252.639C142.367 252.201 138.123 251.931 131.224 251.931C124.326 251.931 120.082 252.201 120.082 252.639ZM334.98 419.649C334.98 420.039 333.547 420.357 331.796 420.357C330.045 420.357 328.612 420.676 328.612 421.065C328.612 421.521 319.857 421.772 303.939 421.772C288.02 421.772 279.265 422.024 279.265 422.48C279.265 422.924 274.225 423.188 265.735 423.188H252.204V472.017V520.847H254.592C255.905 520.847 256.98 520.528 256.98 520.139C256.98 519.75 258.412 519.431 260.163 519.431C261.914 519.431 263.347 519.113 263.347 518.724C263.347 518.263 275.021 518.016 296.775 518.016H330.204V479.094C330.204 453.618 330.479 440.172 331 440.172C331.454 440.172 331.796 438.049 331.796 435.218C331.796 432.388 332.137 430.265 332.592 430.265C333.03 430.265 333.388 429.309 333.388 428.142C333.388 426.974 333.746 426.018 334.184 426.018C334.621 426.018 334.98 425.063 334.98 423.895C334.98 422.728 335.338 421.772 335.776 421.772C336.213 421.772 336.571 421.136 336.571 420.357C336.571 419.579 336.213 418.942 335.776 418.942C335.338 418.942 334.98 419.26 334.98 419.649ZM177.388 426.018C177.388 426.797 177.03 427.434 176.592 427.434C176.069 427.434 175.796 443.475 175.796 474.14V520.847H207.633H239.469V472.725V424.603H208.429C177.919 424.603 177.388 424.627 177.388 426.018Z" fill="#222222"/>
</svg>
